<?xml version="1.0" standalone="no"?>
<!DOCTYPE svg PUBLIC "-//W3C//DTD SVG 20010904//EN"
 "http://www.w3.org/TR/2001/REC-SVG-20010904/DTD/svg10.dtd">
<svg version="1.0" xmlns="http://www.w3.org/2000/svg"
 width="900.000000pt" height="500.000000pt" viewBox="0 0 900.000000 500.000000"
 preserveAspectRatio="xMidYMid meet">
<metadata>
Created by potrace 1.16, written by Peter Selinger 2001-2019
</metadata>
<g transform="translate(0.000000,500.000000) scale(0.100000,-0.100000)"
fill="#000000" stroke="none">
<path d="M2794 3206 c-28 -28 -34 -42 -34 -75 0 -57 24 -100 65 -117 44 -18
69 -18 109 1 63 30 84 110 46 173 -23 37 -54 52 -112 52 -32 0 -47 -7 -74 -34z"/>
<path d="M863 3203 l-103 -24 0 -168 0 -168 -57 29 c-53 27 -65 29 -143 26
-70 -3 -97 -9 -150 -34 -158 -75 -253 -251 -222 -414 33 -179 155 -302 328
-331 82 -14 157 -2 230 37 l47 25 27 -26 c24 -23 34 -26 91 -23 l64 3 3 548
c1 301 -1 547 -5 546 -5 -1 -54 -12 -110 -26z m-195 -520 c18 -9 43 -29 57
-45 23 -27 25 -38 25 -127 0 -92 -1 -98 -28 -128 -47 -50 -86 -66 -157 -61
-49 3 -70 10 -100 32 -97 74 -109 197 -28 287 58 65 146 81 231 42z"/>
<path d="M7780 3206 l-95 -22 -3 -167 c-1 -92 -5 -167 -8 -167 -2 0 -24 10
-47 23 -36 19 -57 22 -142 22 -90 0 -106 -3 -160 -29 -77 -38 -153 -114 -191
-191 -26 -55 -29 -69 -29 -165 0 -99 2 -110 33 -172 99 -203 327 -281 526
-180 l50 24 21 -26 c19 -23 27 -26 88 -26 l67 0 0 550 c0 303 -3 549 -7 549
-5 -1 -51 -11 -103 -23z m-199 -522 c14 -7 40 -29 58 -49 30 -34 31 -39 31
-125 0 -86 -1 -90 -32 -126 -117 -133 -339 -50 -338 127 1 145 152 238 281
173z"/>
<path d="M1416 2899 c-120 -20 -231 -105 -285 -219 -23 -49 -26 -67 -26 -170
0 -104 3 -121 27 -172 34 -72 112 -152 181 -183 77 -36 194 -51 266 -35 31 7
72 19 91 27 43 17 140 75 140 83 0 3 -25 36 -55 72 l-54 67 -61 -31 c-113 -59
-234 -47 -300 28 -16 19 -30 44 -30 54 0 19 8 20 280 20 l280 0 0 48 c0 26 -7
77 -14 113 -36 167 -141 273 -297 299 -71 11 -74 11 -143 -1z m159 -192 c37
-21 84 -85 85 -114 0 -10 -42 -13 -175 -13 -164 0 -175 1 -175 19 0 18 31 64
60 89 54 46 142 55 205 19z"/>
<path d="M2214 2895 c-155 -33 -244 -120 -244 -235 0 -28 6 -65 14 -83 29 -70
122 -123 257 -147 155 -27 209 -53 193 -93 -10 -26 -65 -42 -133 -39 -51 2
-80 10 -139 39 l-74 36 -61 -62 -62 -62 40 -36 c148 -131 423 -135 565 -7 53
48 71 84 71 142 1 128 -80 193 -296 237 -148 30 -188 53 -165 95 32 59 201 50
300 -17 l35 -23 62 62 63 62 -33 34 c-44 46 -141 91 -218 102 -81 12 -100 11
-175 -5z"/>
<path d="M6538 2900 c-107 -19 -208 -86 -266 -178 -125 -196 -51 -462 156
-564 63 -31 72 -33 177 -33 98 0 116 3 165 26 104 48 172 126 210 240 52 152
-6 335 -137 435 -80 61 -205 91 -305 74z m169 -225 c73 -44 108 -132 84 -218
-25 -85 -93 -137 -183 -137 -65 0 -99 14 -140 57 -103 108 -63 267 81 320 46
17 105 9 158 -22z"/>
<path d="M8337 2900 c-120 -21 -234 -110 -290 -228 -29 -60 -32 -76 -31 -157
0 -106 24 -178 84 -253 80 -102 186 -147 330 -140 73 3 98 9 152 36 79 38 149
110 186 190 24 50 27 69 27 162 0 98 -2 109 -32 171 -56 113 -164 195 -288
218 -65 12 -69 12 -138 1z m163 -219 c19 -10 48 -36 64 -59 64 -90 40 -214
-53 -274 -41 -26 -53 -29 -112 -26 -54 3 -73 9 -103 32 -102 77 -112 208 -23
294 63 61 148 74 227 33z"/>
<path d="M3379 2885 c-191 -70 -302 -245 -271 -430 43 -262 291 -406 537 -314
79 29 173 119 211 201 26 57 29 73 29 168 0 96 -3 110 -29 164 l-29 60 31 26
c29 24 32 32 32 83 l0 57 -237 -1 c-170 0 -248 -4 -274 -14z m166 -186 c86
-24 144 -98 145 -187 0 -120 -84 -198 -205 -190 -69 4 -121 34 -155 90 -62
102 -6 247 109 282 58 18 58 18 106 5z"/>
<path d="M4370 2891 c-39 -12 -85 -38 -116 -64 l-29 -24 -30 38 c-29 37 -31
38 -97 39 l-68 0 0 -375 0 -375 100 0 100 0 0 218 c0 206 1 220 23 262 31 63
76 90 148 90 51 0 63 -4 93 -31 20 -17 40 -47 46 -67 5 -20 10 -135 10 -254
l0 -218 100 0 100 0 0 263 c0 290 -6 331 -59 405 -17 22 -51 53 -77 68 -40 24
-61 28 -133 31 -47 1 -97 -1 -111 -6z"/>
<path d="M5210 2879 c-24 -11 -59 -31 -77 -45 l-32 -24 -28 35 c-27 34 -30 35
-95 35 l-68 0 0 -375 0 -375 99 0 100 0 3 233 c3 211 5 235 23 265 28 47 73
72 129 72 38 0 52 -6 81 -32 47 -44 55 -92 55 -339 l0 -199 100 0 100 0 0 223
c0 197 3 227 20 264 23 52 70 83 125 83 49 0 81 -16 109 -53 20 -27 21 -45 26
-270 l5 -242 98 -3 97 -3 0 274 c0 307 -4 333 -67 407 -80 93 -220 118 -338
61 -33 -15 -73 -42 -90 -59 l-30 -30 -43 43 c-25 26 -61 50 -89 59 -65 22
-158 20 -213 -5z"/>
<path d="M2780 2510 l0 -380 100 0 100 0 0 380 0 380 -100 0 -100 0 0 -380z"/>
<path d="M3243 1998 c-6 -7 -29 -44 -52 -81 l-41 -68 74 -35 c76 -36 195 -63
276 -63 77 0 192 25 268 59 39 18 72 37 72 42 0 10 -89 158 -95 158 -2 0 -25
-9 -52 -21 -26 -12 -80 -27 -119 -34 -101 -17 -176 -5 -305 49 -9 4 -20 1 -26
-6z"/>
</g>
</svg>
