<?xml version="1.0" standalone="no"?>
<!DOCTYPE svg PUBLIC "-//W3C//DTD SVG 20010904//EN"
 "http://www.w3.org/TR/2001/REC-SVG-20010904/DTD/svg10.dtd">
<svg version="1.0" xmlns="http://www.w3.org/2000/svg"
 width="854.000000pt" height="165.000000pt" viewBox="0 0 854.000000 165.000000"
 preserveAspectRatio="xMidYMid meet">
<metadata>
Created by potrace 1.16, written by Peter Selinger 2001-2019
</metadata>
<g transform="translate(0.000000,165.000000) scale(0.100000,-0.100000)"
fill="#000000" stroke="none">
<path d="M5697 1639 c-126 -30 -177 -116 -177 -301 l0 -98 -48 0 c-60 0 -92
-21 -92 -60 0 -44 23 -60 86 -60 l54 0 0 -258 c0 -295 2 -302 70 -302 68 0 70
7 70 302 l0 258 63 0 c76 0 100 14 100 60 0 46 -24 60 -100 60 l-63 0 0 90 c0
139 31 190 115 190 52 0 85 23 85 58 0 38 -11 51 -51 62 -39 12 -60 11 -112
-1z"/>
<path d="M2274 1626 c-18 -14 -19 -33 -22 -517 -3 -566 -5 -549 67 -549 66 0
69 9 73 230 3 181 5 198 27 243 32 66 80 97 149 97 48 0 58 -4 87 -33 18 -18
38 -51 44 -72 6 -23 11 -125 11 -236 0 -221 3 -229 73 -229 63 0 67 14 67 260
0 244 -9 295 -63 357 -89 102 -287 103 -372 1 l-25 -30 0 231 c0 226 0 230
-22 245 -28 20 -68 20 -94 2z"/>
<path d="M38 1591 l-33 -29 -3 -544 c-2 -299 0 -558 3 -577 4 -18 17 -44 30
-57 24 -24 27 -24 221 -24 l197 0 48 -45 c90 -84 185 -110 389 -109 110 1 184
8 304 28 189 33 251 53 318 102 46 34 50 40 45 71 -5 26 -2 35 14 43 22 12 27
75 7 84 -10 5 -9 8 2 13 25 11 70 61 70 78 0 9 -11 27 -25 39 -24 22 -24 25
-10 40 9 9 20 16 24 16 22 0 51 44 51 76 0 28 -6 38 -32 54 -18 11 -41 20 -51
20 -10 0 -32 10 -48 23 -28 20 -42 22 -159 22 l-129 0 -3 323 -3 324 -33 29
-32 29 -565 0 -565 0 -32 -29z m1606 -806 c-9 -23 -21 -18 -26 10 -4 21 -3 23
13 14 11 -5 16 -16 13 -24z m-1102 -139 c-3 -129 -1 -160 13 -188 47 -93 123
-128 275 -128 93 0 100 -1 100 -20 0 -17 -7 -20 -52 -20 -157 1 -293 48 -341
117 -53 79 -59 189 -17 327 12 36 22 66 23 66 1 0 1 -69 -1 -154z"/>
<path d="M1891 1423 c-22 -18 -22 -20 -19 -389 l3 -371 29 -37 c40 -53 83 -69
174 -64 63 3 77 7 93 27 23 28 24 50 5 76 -11 16 -25 19 -68 17 -98 -4 -107
20 -108 271 l0 167 79 0 c89 0 111 12 111 60 0 44 -31 60 -117 60 l-73 0 0 84
c0 76 -2 86 -22 100 -29 21 -61 20 -87 -1z"/>
<path d="M8242 1424 l-22 -15 0 -357 c0 -351 0 -359 23 -402 36 -71 63 -85
169 -85 82 0 91 2 109 24 23 28 24 50 5 76 -11 16 -25 19 -70 17 -45 -2 -60 2
-76 18 -19 19 -20 33 -20 220 l0 200 74 0 c84 0 106 13 106 60 0 43 -32 60
-111 60 l-66 0 -5 82 c-4 69 -8 84 -28 100 -27 22 -58 23 -88 2z"/>
<path d="M3187 1249 c-110 -18 -199 -85 -248 -188 -34 -70 -38 -215 -9 -296
33 -89 115 -166 205 -194 137 -43 274 -17 368 68 20 19 27 34 27 63 0 62 -58
78 -114 31 -96 -81 -217 -83 -300 -5 -28 26 -65 94 -66 120 0 9 55 12 243 12
224 0 245 2 260 18 38 42 10 183 -53 270 -55 77 -193 121 -313 101z m152 -129
c42 -21 77 -69 87 -119 l7 -31 -192 0 -192 0 6 23 c34 116 179 181 284 127z"/>
<path d="M3922 1249 c-50 -9 -103 -40 -131 -74 l-19 -25 -6 41 c-8 48 -40 68
-84 53 -49 -17 -52 -37 -52 -336 0 -330 4 -347 77 -348 26 0 42 8 65 33 1 1 4
97 7 213 6 208 6 211 33 252 45 68 116 92 187 63 60 -25 65 -50 71 -304 5
-212 6 -230 24 -243 27 -19 80 -18 99 4 12 14 16 53 19 217 3 185 5 203 26
247 30 60 76 90 139 90 56 0 90 -23 118 -78 17 -34 20 -67 25 -257 5 -238 5
-237 66 -237 16 0 39 6 50 14 18 14 19 28 19 253 0 236 0 238 -26 294 -43 91
-109 130 -219 131 -80 1 -148 -26 -195 -77 l-33 -34 -27 34 c-47 63 -140 92
-233 74z"/>
<path d="M4993 1250 c-108 -16 -204 -87 -251 -188 -24 -51 -27 -69 -26 -162 0
-85 4 -114 22 -152 31 -70 93 -131 165 -164 55 -26 73 -29 162 -29 89 0 106 3
157 28 60 29 118 86 118 115 0 10 -7 28 -16 40 -22 32 -63 28 -115 -12 -141
-107 -303 -56 -354 112 l-6 22 243 0 c289 0 283 -2 281 87 -3 86 -36 167 -93
223 -67 68 -170 96 -287 80z m165 -139 c35 -24 72 -87 72 -121 0 -19 -5 -20
-190 -20 l-190 0 14 35 c26 62 64 102 118 125 41 17 140 7 176 -19z"/>
<path d="M6095 1250 c-125 -18 -232 -102 -274 -215 -19 -50 -22 -75 -19 -150
3 -79 8 -98 38 -153 37 -70 91 -120 166 -154 40 -19 67 -23 149 -23 87 0 107
3 156 26 79 37 133 90 171 167 30 60 33 74 32 156 0 98 -18 155 -70 223 -69
91 -215 143 -349 123z m167 -143 c72 -40 114 -131 105 -228 -6 -67 -41 -137
-85 -167 -176 -123 -389 49 -327 265 40 137 185 199 307 130z"/>
<path d="M6859 1250 c-45 -8 -102 -43 -128 -78 l-20 -27 -1 33 c0 60 -59 91
-108 56 -22 -15 -22 -16 -22 -328 0 -290 1 -314 18 -329 23 -21 71 -22 98 -3
17 13 19 31 24 218 5 199 6 204 32 249 30 51 76 79 127 79 18 0 47 7 66 14 32
14 35 19 35 55 0 28 -5 43 -17 49 -30 15 -66 20 -104 12z"/>
<path d="M7213 1250 c-110 -16 -203 -86 -252 -189 -23 -49 -26 -68 -26 -161 0
-86 4 -113 21 -151 26 -55 76 -114 125 -145 135 -85 355 -65 448 42 35 39 38
59 15 92 -21 30 -65 29 -102 -3 -45 -37 -112 -65 -160 -65 -97 0 -183 67 -206
163 l-6 27 244 0 c285 0 276 -3 276 91 0 201 -161 329 -377 299z m165 -139
c35 -24 72 -87 72 -121 0 -19 -5 -20 -190 -20 l-190 0 15 36 c40 96 103 137
200 132 44 -3 70 -10 93 -27z"/>
<path d="M7832 1249 c-147 -20 -232 -159 -170 -279 28 -54 71 -81 183 -111 98
-26 130 -42 151 -74 14 -21 14 -30 4 -56 -30 -70 -151 -80 -236 -19 -53 38
-99 44 -120 15 -36 -49 -2 -104 91 -147 41 -19 67 -23 145 -23 84 0 102 3 153
28 87 43 129 132 108 229 -18 80 -82 121 -264 168 -65 17 -97 44 -97 81 0 83
130 107 221 40 48 -35 65 -38 97 -15 30 21 30 73 -1 102 -54 51 -162 76 -265
61z"/>
</g>
</svg>
